<svg width="91" height="34" viewBox="0 0 91 34" fill="none" xmlns="http://www.w3.org/2000/svg">
<g style="mix-blend-mode:luminosity" clip-path="url(#clip0_21423_20012)">
<path d="M47.8456 9.95216C47.8456 10.9732 47.0231 11.7957 46.0021 11.7957C44.9811 11.7957 44.1586 10.9732 44.1586 9.95216C44.1586 8.93114 44.9527 8.10865 46.0021 8.10865C47.0515 8.13701 47.8456 8.9595 47.8456 9.95216ZM40.2447 13.6675C40.2447 13.8377 40.2447 14.1213 40.2447 14.1213C40.2447 14.1213 39.3655 12.9869 37.4936 12.9869C34.4022 12.9869 31.9914 15.3409 31.9914 18.6025C31.9914 21.8357 34.3738 24.2181 37.4936 24.2181C39.3938 24.2181 40.2447 23.0553 40.2447 23.0553V23.5374C40.2447 23.7643 40.4148 23.9345 40.6417 23.9345H42.939V13.2705C42.939 13.2705 40.8403 13.2705 40.6417 13.2705C40.4148 13.2705 40.2447 13.469 40.2447 13.6675ZM40.2447 20.5027C39.8192 21.1267 38.9684 21.6655 37.9474 21.6655C36.1322 21.6655 34.7425 20.5311 34.7425 18.6025C34.7425 16.6739 36.1322 15.5394 37.9474 15.5394C38.94 15.5394 39.8476 16.1066 40.2447 16.7022V20.5027ZM44.6407 13.2705H47.3634V23.9345H44.6407V13.2705ZM85.3114 12.9869C83.4395 12.9869 82.5603 14.1213 82.5603 14.1213V8.13701H79.8376V23.9345C79.8376 23.9345 81.9363 23.9345 82.1349 23.9345C82.3618 23.9345 82.5319 23.7359 82.5319 23.5374V23.0553C82.5319 23.0553 83.4112 24.2181 85.283 24.2181C88.3745 24.2181 90.7852 21.8357 90.7852 18.6025C90.7852 15.3692 88.3744 12.9869 85.3114 12.9869ZM84.8576 21.6372C83.8082 21.6372 82.9857 21.0983 82.5603 20.4743V16.6739C82.9857 16.1066 83.8933 15.5111 84.8576 15.5111C86.6728 15.5111 88.0625 16.6455 88.0625 18.5741C88.0625 20.5027 86.6728 21.6372 84.8576 21.6372ZM78.4195 17.6098V23.9628H75.6968V17.9218C75.6968 16.1634 75.1295 15.4543 73.598 15.4543C72.7755 15.4543 71.9247 15.8798 71.3858 16.5037V23.9345H68.6631V13.2705H70.8186C71.0455 13.2705 71.2156 13.469 71.2156 13.6675V14.1213C72.0098 13.2988 73.0591 12.9869 74.1085 12.9869C75.2997 12.9869 76.2924 13.3272 77.0865 14.0079C78.0508 14.802 78.4195 15.823 78.4195 17.6098ZM62.0548 12.9869C60.1829 12.9869 59.3037 14.1213 59.3037 14.1213V8.13701H56.581V23.9345C56.581 23.9345 58.6798 23.9345 58.8783 23.9345C59.1052 23.9345 59.2754 23.7359 59.2754 23.5374V23.0553C59.2754 23.0553 60.1546 24.2181 62.0264 24.2181C65.1179 24.2181 67.5286 21.8357 67.5286 18.6025C67.557 15.3692 65.1462 12.9869 62.0548 12.9869ZM61.601 21.6372C60.5516 21.6372 59.7291 21.0983 59.3037 20.4743V16.6739C59.7291 16.1066 60.6367 15.5111 61.601 15.5111C63.4162 15.5111 64.8059 16.6455 64.8059 18.5741C64.8059 20.5027 63.4162 21.6372 61.601 21.6372ZM54.227 12.9869C55.0495 12.9869 55.4749 13.1287 55.4749 13.1287V15.6529C55.4749 15.6529 53.206 14.8871 51.7879 16.5037V23.9628H49.0652V13.2705C49.0652 13.2705 51.1639 13.2705 51.3624 13.2705C51.5893 13.2705 51.7595 13.469 51.7595 13.6675V14.1213C52.27 13.5257 53.3761 12.9869 54.227 12.9869ZM25.9504 22.9702C25.8086 22.6298 25.6668 22.2611 25.525 21.9492C25.2981 21.4386 25.0712 20.9565 24.8726 20.5027L24.8443 20.4743C22.8873 16.2201 20.7885 11.9091 18.5763 7.65486L18.4913 7.48469C18.2644 7.05927 18.0375 6.60548 17.8106 6.15169C17.527 5.64118 17.2433 5.10231 16.7896 4.5918C15.882 3.45733 14.5773 2.83337 13.1876 2.83337C11.7695 2.83337 10.4933 3.45733 9.55732 4.53508C9.1319 5.04559 8.81992 5.58446 8.5363 6.09497C8.30941 6.54876 8.08251 7.00254 7.85562 7.42797L7.77054 7.59814C5.58669 11.8524 3.45956 16.1634 1.5026 20.4176L1.47424 20.4743C1.27571 20.9281 1.04882 21.4103 0.821923 21.9208C0.680114 22.2328 0.538306 22.5731 0.396497 22.9418C0.0277955 23.9912 -0.0856513 24.9839 0.0561572 26.0049C0.368136 28.132 1.78622 29.9188 3.74318 30.7129C4.48058 31.0249 5.24635 31.1667 6.04047 31.1667C6.26737 31.1667 6.55098 31.1383 6.77788 31.11C7.71381 30.9965 8.67811 30.6846 9.61405 30.1457C10.7769 29.4934 11.883 28.5574 13.1309 27.1961C14.3788 28.5574 15.5133 29.4934 16.6477 30.1457C17.5837 30.6846 18.548 30.9965 19.4839 31.11C19.7108 31.1383 19.9944 31.1667 20.2213 31.1667C21.0154 31.1667 21.8096 31.0249 22.5186 30.7129C24.5039 29.9188 25.8937 28.1036 26.2056 26.0049C26.4325 25.0122 26.3191 24.0196 25.9504 22.9702ZM13.1593 24.445C11.6277 22.5164 10.6351 20.7012 10.2947 19.1697C10.1529 18.5174 10.1246 17.9502 10.2096 17.4396C10.2664 16.9859 10.4365 16.5888 10.6634 16.2485C11.2023 15.4827 12.1099 15.0005 13.1593 15.0005C14.2086 15.0005 15.1446 15.4543 15.6551 16.2485C15.882 16.5888 16.0521 16.9859 16.1089 17.4396C16.194 17.9502 16.1656 18.5458 16.0238 19.1697C15.6834 20.6729 14.6908 22.488 13.1593 24.445ZM24.4756 25.778C24.277 27.2528 23.2844 28.5291 21.8947 29.0963C21.214 29.3799 20.4766 29.465 19.7392 29.3799C19.0301 29.2948 18.3211 29.0679 17.5837 28.6425C16.5627 28.0753 15.5416 27.1961 14.3504 25.8914C16.2223 23.5941 17.3568 21.4954 17.7822 19.6235C17.9807 18.7443 18.0091 17.9502 17.924 17.2128C17.8106 16.5037 17.5553 15.8514 17.1583 15.2842C16.279 14.0079 14.8042 13.2705 13.1593 13.2705C11.5143 13.2705 10.0395 14.0362 9.16026 15.2842C8.7632 15.8514 8.50794 16.5037 8.39449 17.2128C8.28105 17.9502 8.30941 18.7726 8.5363 19.6235C8.96173 21.4954 10.1246 23.6225 11.9681 25.9198C10.8052 27.2244 9.75585 28.1036 8.73483 28.6709C7.99743 29.0963 7.28839 29.3232 6.57935 29.4083C5.81358 29.4934 5.07618 29.3799 4.42386 29.1247C3.03413 28.5574 2.04148 27.2812 1.84294 25.8063C1.75786 25.0973 1.81458 24.3883 2.0982 23.5941C2.18328 23.3105 2.32509 23.0269 2.4669 22.6866C2.66543 22.2328 2.89233 21.7506 3.11922 21.2685L3.14758 21.2118C5.10454 16.9859 7.2033 12.6749 9.38715 8.47735L9.47224 8.30718C9.69913 7.88176 9.92602 7.42797 10.1529 7.00254C10.3798 6.54876 10.6351 6.12333 10.947 5.75463C11.5426 5.07395 12.3368 4.70525 13.216 4.70525C14.0952 4.70525 14.8893 5.07395 15.4849 5.75463C15.7969 6.12333 16.0521 6.54876 16.279 7.00254C16.5059 7.42797 16.7328 7.88176 16.9597 8.30718L17.0448 8.47735C19.2003 12.7032 21.2991 17.0142 23.256 21.2401V21.2685C23.4829 21.7223 23.6814 22.2328 23.9083 22.6866C24.0501 23.0269 24.192 23.3105 24.277 23.5941C24.5039 24.3315 24.589 25.0406 24.4756 25.778Z" fill="#FF5A5F"/>
</g>
<defs>
<clipPath id="clip0_21423_20012">
<rect width="90.6667" height="34" fill="white"/>
</clipPath>
</defs>
</svg>
