<svg width="102" height="34" viewBox="0 0 102 34" fill="none" xmlns="http://www.w3.org/2000/svg">
<g style="mix-blend-mode:luminosity" clip-path="url(#clip0_21423_20017)">
<path d="M37.6921 9.04651H32.1138C31.7321 9.04651 31.4074 9.32383 31.3479 9.70067L29.0918 24.0048C29.0469 24.2871 29.2655 24.5415 29.5518 24.5415H32.2149C32.5967 24.5415 32.9213 24.2642 32.9808 23.8866L33.5893 20.0285C33.648 19.6509 33.9735 19.3735 34.3544 19.3735H36.1203C39.7948 19.3735 41.9155 17.5954 42.4694 14.0718C42.719 12.5302 42.48 11.3189 41.7581 10.4706C40.9653 9.53917 39.5591 9.04651 37.6921 9.04651ZM38.3356 14.2708C38.0306 16.2724 36.5012 16.2724 35.0224 16.2724H34.1807L34.7712 12.5343C34.8063 12.3083 35.002 12.1419 35.2304 12.1419H35.6162C36.6236 12.1419 37.5738 12.1419 38.0648 12.7161C38.3576 13.0587 38.4474 13.5677 38.3356 14.2708Z" fill="#253B80"/>
<path d="M54.3667 14.2063H51.6954C51.4678 14.2063 51.2713 14.3727 51.2362 14.5987L51.1179 15.3458L50.9311 15.075C50.3528 14.2357 49.0633 13.9551 47.7762 13.9551C44.8243 13.9551 42.3031 16.1908 41.8121 19.327C41.5568 20.8915 41.9198 22.3874 42.8072 23.4306C43.6212 24.3898 44.786 24.7895 46.1718 24.7895C48.5502 24.7895 49.8691 23.2601 49.8691 23.2601L49.7501 24.0024C49.7052 24.2862 49.9238 24.5407 50.2085 24.5407H52.6146C52.9972 24.5407 53.3202 24.2634 53.3805 23.8857L54.8242 14.743C54.8699 14.4616 54.6521 14.2063 54.3667 14.2063ZM50.6432 19.4053C50.3855 20.9314 49.1742 21.9559 47.6293 21.9559C46.8537 21.9559 46.2338 21.7071 45.8357 21.2357C45.4409 20.7675 45.2909 20.1011 45.4165 19.3588C45.6571 17.8458 46.8887 16.7879 48.4099 16.7879C49.1685 16.7879 49.7851 17.0399 50.1913 17.5155C50.5983 17.9959 50.7598 18.6664 50.6432 19.4053Z" fill="#253B80"/>
<path d="M68.5933 14.2063H65.909C65.6529 14.2063 65.4123 14.3336 65.2671 14.5464L61.5648 19.9999L59.9955 14.7593C59.8968 14.4314 59.5942 14.2063 59.2516 14.2063H56.6138C56.2932 14.2063 56.0705 14.5195 56.1725 14.8213L59.1293 23.4983L56.3495 27.4224C56.1309 27.7315 56.3511 28.1565 56.7288 28.1565H59.4098C59.6643 28.1565 59.9025 28.0325 60.0469 27.8237L68.975 14.9363C69.1888 14.628 68.9693 14.2063 68.5933 14.2063Z" fill="#253B80"/>
<path d="M77.4802 9.04664H71.9011C71.5202 9.04664 71.1955 9.32396 71.136 9.7008L68.8799 24.005C68.835 24.2872 69.0536 24.5417 69.3383 24.5417H72.2012C72.4671 24.5417 72.6947 24.3475 72.7363 24.0833L73.3766 20.0286C73.4353 19.651 73.7608 19.3737 74.1417 19.3737H75.9068C79.5821 19.3737 81.702 17.5955 82.2566 14.0719C82.5071 12.5303 82.2664 11.3191 81.5446 10.4708C80.7526 9.5393 79.3472 9.04664 77.4802 9.04664ZM78.1237 14.2709C77.8195 16.2725 76.2901 16.2725 74.8105 16.2725H73.9696L74.5609 12.5344C74.596 12.3085 74.7901 12.1421 75.0193 12.1421H75.4051C76.4117 12.1421 77.3627 12.1421 77.8537 12.7163C78.1466 13.0589 78.2355 13.5678 78.1237 14.2709Z" fill="#179BD7"/>
<path d="M94.1539 14.2065H91.4842C91.255 14.2065 91.0601 14.3729 91.0258 14.5988L90.9076 15.346L90.7199 15.0752C90.1416 14.2358 88.8529 13.9553 87.5658 13.9553C84.6139 13.9553 82.0936 16.191 81.6025 19.3272C81.3481 20.8916 81.7094 22.3875 82.5968 23.4307C83.4125 24.3899 84.5756 24.7896 85.9614 24.7896C88.3399 24.7896 89.6588 23.2603 89.6588 23.2603L89.5397 24.0025C89.4948 24.2864 89.7134 24.5408 89.9997 24.5408H92.4051C92.786 24.5408 93.1106 24.2635 93.1702 23.8859L94.6147 14.7432C94.6588 14.4618 94.4402 14.2065 94.1539 14.2065ZM90.4304 19.4055C90.1743 20.9316 88.9614 21.956 87.4165 21.956C86.6425 21.956 86.021 21.7073 85.6229 21.2358C85.2281 20.7676 85.0797 20.1012 85.2037 19.359C85.4459 17.8459 86.6759 16.788 88.1971 16.788C88.9557 16.788 89.5723 17.0401 89.9785 17.5156C90.3872 17.996 90.5487 18.6665 90.4304 19.4055Z" fill="#179BD7"/>
<path d="M97.303 9.43892L95.0135 24.0049C94.9686 24.2871 95.1872 24.5416 95.4719 24.5416H97.7737C98.1562 24.5416 98.4809 24.2643 98.5396 23.8866L100.797 9.58329C100.842 9.30108 100.624 9.04578 100.339 9.04578H97.7614C97.5339 9.04659 97.3381 9.21299 97.303 9.43892Z" fill="#179BD7"/>
<path d="M5.92736 27.3214L6.35395 24.6118L5.40371 24.5897H0.866211L4.01954 4.59555C4.02933 4.53519 4.06114 4.47891 4.10763 4.43894C4.15412 4.39898 4.21367 4.37695 4.27566 4.37695H11.9265C14.4665 4.37695 16.2193 4.9055 17.1345 5.94872C17.5635 6.43812 17.8368 6.94953 17.9689 7.51234C18.1076 8.10287 18.11 8.80841 17.9746 9.66893L17.9648 9.73174V10.2831L18.3939 10.5262C18.7552 10.7179 19.0423 10.9373 19.2625 11.1885C19.6296 11.6069 19.8669 12.1387 19.9673 12.7692C20.0708 13.4177 20.0366 14.1893 19.8669 15.0629C19.6712 16.0678 19.3547 16.943 18.9273 17.6591C18.5341 18.319 18.0333 18.8663 17.4387 19.2904C16.871 19.6934 16.1965 19.9992 15.4338 20.195C14.6948 20.3875 13.8523 20.4845 12.9281 20.4845H12.3327C11.9069 20.4845 11.4934 20.6379 11.1688 20.9128C10.8433 21.1933 10.628 21.5767 10.5619 21.996L10.5171 22.2398L9.76339 27.0155L9.72913 27.1909C9.72016 27.2463 9.70466 27.2741 9.68183 27.2928C9.66143 27.31 9.63207 27.3214 9.60352 27.3214H5.92736Z" fill="#253B80"/>
<path d="M18.7986 9.79529C18.7757 9.94129 18.7496 10.0906 18.7203 10.2439C17.7113 15.4241 14.2594 17.2137 9.85082 17.2137H7.60613C7.06698 17.2137 6.61266 17.6052 6.52865 18.137L5.37939 25.4257L5.05394 27.4918C4.99929 27.8409 5.26846 28.1557 5.62083 28.1557H9.60204C10.0735 28.1557 10.474 27.8131 10.5482 27.3482L10.5874 27.1459L11.3369 22.389L11.3851 22.128C11.4585 21.6615 11.8598 21.3189 12.3312 21.3189H12.9267C16.7839 21.3189 19.8035 19.7528 20.686 15.221C21.0547 13.3279 20.8638 11.7472 19.8883 10.6354C19.593 10.3002 19.2268 10.022 18.7986 9.79529Z" fill="#179BD7"/>
<path d="M17.7447 9.37436C17.5906 9.3295 17.4315 9.28871 17.2684 9.25201C17.1044 9.21612 16.9364 9.18431 16.7635 9.15658C16.1583 9.0587 15.4952 9.01221 14.7847 9.01221H8.78801C8.64038 9.01221 8.50008 9.04565 8.37447 9.10601C8.09796 9.23896 7.89242 9.50079 7.84266 9.82134L6.56698 17.9012L6.53027 18.137C6.61429 17.6051 7.06861 17.2136 7.60776 17.2136H9.85244C14.2611 17.2136 17.7129 15.4233 18.7219 10.2438C18.7521 10.0905 18.7774 9.94124 18.8002 9.79524C18.5449 9.65984 18.2684 9.54402 17.9707 9.44532C17.8973 9.42085 17.8214 9.3972 17.7447 9.37436Z" fill="#222D65"/>
<path d="M7.84171 9.82137C7.89147 9.50081 8.09701 9.23899 8.37352 9.10685C8.49995 9.04649 8.63942 9.01305 8.78706 9.01305H14.7838C15.4942 9.01305 16.1573 9.05954 16.7625 9.15742C16.9355 9.18515 17.1035 9.21696 17.2674 9.25285C17.4306 9.28956 17.5896 9.33034 17.7438 9.3752C17.8205 9.39804 17.8963 9.42169 17.9705 9.44535C18.2682 9.54404 18.5448 9.66068 18.8001 9.79526C19.1002 7.88092 18.7976 6.5775 17.7625 5.39724C16.6214 4.0979 14.5619 3.54163 11.9265 3.54163H4.27566C3.73733 3.54163 3.27811 3.93314 3.19492 4.46576L0.00814745 24.6655C-0.0546581 25.0652 0.25366 25.4257 0.656594 25.4257H5.38006L6.56603 17.9013L7.84171 9.82137Z" fill="#253B80"/>
</g>
<defs>
<clipPath id="clip0_21423_20017">
<rect width="101.292" height="34" fill="white"/>
</clipPath>
</defs>
</svg>
