<svg width="108" height="34" viewBox="0 0 108 34" fill="none" xmlns="http://www.w3.org/2000/svg">
<g style="mix-blend-mode:luminosity" clip-path="url(#clip0_21423_20006)">
<path d="M37.8742 21.8468V12.4156C37.8742 12.3016 37.9231 12.2038 38.0045 12.1224C38.1023 12.041 38.2163 11.9921 38.3466 12.0084H41.0017C41.7835 11.9758 42.5654 12.2364 43.1681 12.7414C43.7056 13.23 43.9825 13.9956 43.9825 15.0381V15.1684C43.9825 16.2109 43.7056 16.9927 43.1518 17.4814C42.5328 17.9863 41.751 18.2633 40.9528 18.2144H39.0633V21.8468C39.0633 21.9771 38.9982 22.0911 38.8841 22.1563C38.6235 22.3029 38.314 22.3029 38.0534 22.1563C37.9394 22.0911 37.8742 21.9771 37.8742 21.8468ZM39.047 17.2371H40.9528C41.4578 17.2696 41.9627 17.0905 42.3211 16.7321C42.6794 16.3249 42.8586 15.7874 42.8097 15.2335V15.0707C42.8586 14.5331 42.6794 13.9956 42.3211 13.5721C41.9464 13.23 41.4578 13.0509 40.9528 13.0834H39.0633L39.047 17.2371Z" fill="#FF6C37"/>
<path d="M48.0873 19.2895V15.0707C48.0873 14.0119 48.3642 13.2464 48.9017 12.7577C50.2048 11.7804 51.9966 11.7804 53.2997 12.7577C53.8535 13.2464 54.1304 14.0282 54.1304 15.0707V19.2895C54.1304 20.3482 53.8535 21.1138 53.2997 21.6025C51.9966 22.5961 50.2048 22.5961 48.9017 21.6025C48.3642 21.1138 48.0873 20.3482 48.0873 19.2895ZM49.2764 19.2895C49.2764 20.6089 49.879 21.2767 51.117 21.2767C51.6219 21.3093 52.1106 21.1301 52.4852 20.788C52.8436 20.3808 53.0065 19.8433 52.9739 19.2895V15.0544C53.0228 14.5169 52.8436 13.9794 52.4852 13.5558C52.1106 13.2138 51.6219 13.0346 51.117 13.0672C49.8953 13.0672 49.2926 13.7187 49.2926 15.0544L49.2764 19.2895Z" fill="#FF6C37"/>
<path d="M58.3003 20.8206C58.3003 20.6577 58.3655 20.5111 58.4632 20.3808C58.5447 20.2668 58.6587 20.1853 58.8053 20.169C58.9356 20.1853 59.0496 20.2505 59.1311 20.3482C59.2614 20.4622 59.3917 20.5925 59.5383 20.7391C59.7337 20.9183 59.9618 21.0486 60.2061 21.1301C60.5319 21.2604 60.8902 21.3092 61.2323 21.3092C61.7535 21.3418 62.2585 21.1789 62.6657 20.8695C63.0241 20.5437 63.2195 20.055 63.187 19.5664C63.2032 19.094 63.0404 18.6542 62.7146 18.3121C62.3888 17.9863 61.9979 17.742 61.5581 17.5791C61.102 17.4162 60.6622 17.2371 60.1898 17.0416C59.7337 16.8461 59.3428 16.5529 59.0333 16.162C58.7076 15.7222 58.5284 15.1847 58.561 14.6309C58.5447 14.1911 58.6424 13.7513 58.8379 13.3441C59.0008 13.002 59.2614 12.7251 59.5871 12.5296C59.8966 12.3504 60.2224 12.2201 60.5645 12.1224C60.9228 12.041 61.2812 11.9921 61.6395 11.9921C62.2096 11.9921 62.7635 12.0735 63.301 12.2364C63.8222 12.4156 64.0991 12.6436 64.0991 12.9205C64.0991 13.0671 64.0503 13.2137 63.9525 13.3441C63.8874 13.4744 63.7408 13.5721 63.5942 13.5721C63.3824 13.5069 63.1707 13.4255 62.9589 13.3278C62.5517 13.1486 62.1119 13.0509 61.6558 13.0671C61.1834 13.0509 60.6948 13.1649 60.2876 13.4092C59.9292 13.6535 59.7337 14.077 59.7663 14.5168C59.75 14.9241 59.9129 15.315 60.2224 15.5756C60.5645 15.8525 60.9554 16.0806 61.3789 16.2109C61.835 16.3738 62.2911 16.5529 62.7472 16.7647C63.2033 16.9927 63.5942 17.3348 63.8874 17.7583C64.2132 18.2795 64.376 18.8822 64.3597 19.5012C64.3597 20.4622 64.0828 21.1952 63.5127 21.6839C62.8938 22.2051 62.0956 22.4657 61.2812 22.4169C60.5482 22.4332 59.8152 22.254 59.1799 21.8956C58.5935 21.5047 58.3003 21.1626 58.3003 20.8206Z" fill="#FF6C37"/>
<path d="M67.8618 12.5295C67.8618 12.3992 67.8944 12.2689 67.9758 12.1712C68.041 12.0571 68.155 12.0083 68.2853 12.0083H73.9864C74.1167 12.0083 74.2307 12.0571 74.2958 12.1712C74.3773 12.2689 74.4099 12.3992 74.4099 12.5295C74.4099 12.6598 74.3773 12.8064 74.2958 12.9204C74.2307 13.0345 74.1167 13.0833 73.9864 13.0833H71.7548V21.8467C71.7548 21.977 71.6896 22.091 71.5756 22.1561C71.315 22.3027 71.0055 22.3027 70.7449 22.1561C70.6309 22.091 70.5657 21.977 70.5657 21.8467V13.0833H68.3016C68.1713 13.0833 68.0573 13.0345 67.9921 12.9204C67.9107 12.8064 67.8618 12.6761 67.8618 12.5295Z" fill="#FF6C37"/>
<path d="M78.417 21.8468V12.6111C78.3681 12.3342 78.5636 12.0736 78.8405 12.0247C78.9056 12.0084 78.9708 12.0084 79.0197 12.0247C79.3943 12.0247 79.7038 12.2691 79.9644 12.774L82.1634 16.9928L84.3786 12.774C84.6556 12.2853 84.965 12.0247 85.3234 12.0247C85.6003 11.9759 85.8609 12.1713 85.9098 12.4482C85.9261 12.4971 85.9261 12.546 85.9098 12.5948V21.8305C85.9098 21.9608 85.8446 22.0749 85.7306 22.14C85.47 22.2866 85.1605 22.2866 84.8999 22.14C84.7859 22.0749 84.7207 21.9608 84.7207 21.8305V14.4843L82.6032 18.4588C82.538 18.6542 82.3588 18.8008 82.1471 18.8008C81.9516 18.7845 81.7725 18.6542 81.7073 18.4588L79.5898 14.4029V21.8305C79.5898 21.9608 79.5246 22.0749 79.4106 22.14C79.2966 22.2215 79.15 22.2703 79.0197 22.2703C78.8731 22.2703 78.7265 22.2378 78.6124 22.1563C78.4821 22.1074 78.4007 21.9771 78.417 21.8468Z" fill="#FF6C37"/>
<path d="M89.933 21.7817C89.933 21.7491 89.9493 21.7002 89.9656 21.6676L92.8324 12.4319C92.9138 12.155 93.1581 12.0247 93.5491 12.0247C93.94 12.0247 94.1843 12.155 94.2658 12.4319L97.1489 21.7165V21.7979C97.1489 21.9445 97.0511 22.0749 96.9208 22.14C96.7742 22.2377 96.5951 22.2866 96.3996 22.2703C96.2204 22.2866 96.0413 22.1889 95.9761 22.0097L95.3571 19.9573H91.6759L91.0569 22.0097C91.008 22.1889 90.8126 22.3029 90.6334 22.2866C90.4705 22.2866 90.3076 22.2377 90.161 22.14C90.0144 22.0749 89.933 21.9445 89.933 21.7817ZM91.9691 18.98H95.1128L93.5491 13.735L91.9691 18.98Z" fill="#FF6C37"/>
<path d="M101.205 21.8467V12.4155C101.205 12.1386 101.4 12.0083 101.791 12.0083C101.97 12.0083 102.149 12.0734 102.296 12.1874C102.459 12.3503 102.606 12.5458 102.687 12.7575L106.189 19.5988V12.4155C106.189 12.2852 106.254 12.1712 106.368 12.1223C106.629 11.9757 106.938 11.9757 107.199 12.1223C107.313 12.1874 107.378 12.3015 107.378 12.4155V21.8467C107.378 21.977 107.313 22.091 107.199 22.1561C107.069 22.2376 106.938 22.2702 106.792 22.2702C106.466 22.2539 106.173 22.0421 106.059 21.7326L102.378 14.6796V21.8467C102.378 21.977 102.312 22.091 102.215 22.1561C101.954 22.3027 101.645 22.3027 101.384 22.1561C101.27 22.091 101.205 21.977 101.205 21.8467Z" fill="#FF6C37"/>
<path d="M32.4501 19.2568C33.5903 10.3306 27.2866 2.16994 18.3766 1.02973C9.46669 -0.110481 1.27346 6.19326 0.133246 15.1032C-1.00697 24.0131 5.29678 32.1901 14.2067 33.3466C23.1329 34.4868 31.2936 28.1831 32.4501 19.2568Z" fill="#FF6C37"/>
<path d="M22.1724 11.3564L15.2986 18.2303L13.3602 16.2919C20.12 9.53209 20.7879 10.1185 22.1724 11.3564Z" fill="white"/>
<path d="M15.2987 18.3932C15.2499 18.3932 15.2173 18.377 15.1847 18.3444L13.2301 16.406C13.1649 16.3409 13.1649 16.2431 13.2301 16.178C20.1039 9.30413 20.8206 9.95568 22.2703 11.2588C22.3029 11.2914 22.3192 11.3239 22.3192 11.3728C22.3192 11.4217 22.3029 11.4542 22.2703 11.4868L15.3965 18.3444C15.3802 18.377 15.3313 18.3932 15.2987 18.3932ZM13.5884 16.292L15.2987 18.0023L21.9282 11.3728C20.7229 10.2977 19.9084 9.97197 13.5884 16.292Z" fill="#FF6C37"/>
<path d="M17.2694 20.2013L15.3962 18.3281L22.27 11.4542C24.1107 13.3111 21.3579 16.3246 17.2694 20.2013Z" fill="white"/>
<path d="M17.2696 20.3642C17.2208 20.3642 17.1882 20.3479 17.1556 20.3153L15.2824 18.4421C15.2498 18.4095 15.2498 18.3769 15.2498 18.3281C15.2498 18.2792 15.2661 18.2466 15.2987 18.214L22.1725 11.3402C22.2377 11.275 22.3354 11.275 22.4006 11.3402C22.8241 11.7311 23.0521 12.2849 23.0358 12.855C23.0033 14.6631 20.9509 16.9598 17.3999 20.3153C17.3511 20.3479 17.3022 20.3642 17.2696 20.3642ZM15.6245 18.3281C16.6669 19.3868 17.1067 19.8103 17.2696 19.9732C20.0061 17.367 22.6612 14.6957 22.6775 12.855C22.6938 12.4315 22.5309 12.008 22.254 11.6823L15.6245 18.3281Z" fill="#FF6C37"/>
<path d="M13.393 16.3408L14.7775 17.7254C14.8101 17.758 14.8101 17.7905 14.7775 17.8231C14.7612 17.8394 14.7612 17.8394 14.7449 17.8394L11.8781 18.4584C11.7315 18.4747 11.6012 18.3769 11.5686 18.2303C11.5523 18.1489 11.5849 18.0674 11.6338 18.0186L13.2952 16.3571C13.3278 16.3245 13.3767 16.3083 13.393 16.3408Z" fill="white"/>
<path d="M11.8292 18.6213C11.5848 18.6213 11.4057 18.4258 11.4057 18.1815C11.4057 18.0675 11.4545 17.9535 11.536 17.872L13.1974 16.2106C13.2951 16.1291 13.4255 16.1291 13.5232 16.2106L14.9077 17.5951C15.0055 17.6766 15.0055 17.8231 14.9077 17.9209C14.8752 17.9535 14.8426 17.9697 14.7937 17.986L11.9269 18.605C11.8943 18.605 11.8617 18.6213 11.8292 18.6213ZM13.344 16.52L11.7477 18.1163C11.7151 18.1489 11.6989 18.1978 11.7314 18.2467C11.7477 18.2955 11.7966 18.3118 11.8455 18.2955L14.5331 17.7091L13.344 16.52Z" fill="#FF6C37"/>
<path d="M25.8047 7.54509C24.7622 6.53519 23.0845 6.56777 22.0746 7.62654C21.0647 8.6853 21.0973 10.3468 22.156 11.3567C23.0193 12.1874 24.3224 12.334 25.3486 11.715L23.4917 9.85809L25.8047 7.54509Z" fill="white"/>
<path d="M23.9804 12.2522C22.4329 12.2522 21.1787 10.998 21.1787 9.45059C21.1787 7.90316 22.4329 6.64893 23.9804 6.64893C24.6971 6.64893 25.3975 6.92583 25.9187 7.43078C25.9513 7.46336 25.9676 7.49594 25.9676 7.54481C25.9676 7.59367 25.9513 7.62625 25.9187 7.65883L23.7198 9.85781L25.4464 11.5844C25.5115 11.6496 25.5115 11.7473 25.4464 11.8125C25.4301 11.8287 25.4301 11.8287 25.4138 11.845C24.9903 12.1057 24.4853 12.2522 23.9804 12.2522ZM23.9804 6.99099C22.6121 6.99099 21.5045 8.09862 21.5208 9.46688C21.5208 10.8351 22.6284 11.9428 23.9967 11.9265C24.3713 11.9265 24.7459 11.845 25.088 11.6659L23.3777 9.97183C23.3451 9.93925 23.3288 9.90667 23.3288 9.85781C23.3288 9.80894 23.3451 9.77636 23.3777 9.74378L25.5604 7.56109C25.1206 7.18645 24.5668 6.99099 23.9804 6.99099Z" fill="#FF6C37"/>
<path d="M25.8539 7.59384L25.8213 7.56127L23.4917 9.85809L25.3326 11.6986C25.5118 11.5846 25.691 11.4543 25.8376 11.3077C26.8801 10.2815 26.8801 8.62003 25.8539 7.59384Z" fill="white"/>
<path d="M25.349 11.8777C25.3001 11.8777 25.2675 11.8614 25.235 11.8288L23.3777 9.97183C23.3451 9.93925 23.3288 9.90667 23.3288 9.85781C23.3288 9.80894 23.3451 9.77636 23.3777 9.74378L25.6911 7.43088C25.7562 7.36573 25.8536 7.36563 25.9187 7.43078L25.968 7.46346C27.0593 8.55481 27.0593 10.314 25.9843 11.4216C25.8214 11.5845 25.6422 11.7311 25.4467 11.8451C25.3979 11.8614 25.3653 11.8777 25.349 11.8777ZM23.7198 9.85781L25.3653 11.5031C25.4956 11.4216 25.6259 11.3076 25.7236 11.2099C26.6521 10.2814 26.701 8.76656 25.8051 7.78923L23.7198 9.85781Z" fill="#FF6C37"/>
<path d="M22.4495 11.6497C22.0585 11.2587 21.4233 11.2587 21.0324 11.6497L14.8915 17.7905L15.9177 18.8167L22.4169 13.1157C22.8404 12.7573 22.873 12.122 22.5146 11.6985C22.4821 11.6822 22.4658 11.666 22.4495 11.6497Z" fill="white"/>
<path d="M15.9013 18.9797C15.8525 18.9797 15.8199 18.9634 15.7873 18.9308L14.7611 17.9046C14.696 17.8395 14.696 17.7417 14.7611 17.6766L20.902 11.5357C21.3581 11.0796 22.091 11.0796 22.5471 11.5357C23.0032 11.9918 23.0032 12.7248 22.5471 13.1809C22.5308 13.1972 22.5146 13.2135 22.4983 13.2297L15.9991 18.9308C15.9828 18.9634 15.9502 18.9797 15.9013 18.9797ZM15.1195 17.7906L15.9176 18.5887L22.3028 12.9854C22.6611 12.6922 22.6937 12.1547 22.4005 11.7963C22.1073 11.438 21.5698 11.4054 21.2115 11.6986C21.1952 11.7149 21.1789 11.7312 21.1463 11.7475L15.1195 17.7906Z" fill="#FF6C37"/>
<path d="M10.1841 24.7785C10.119 24.811 10.0864 24.8762 10.1027 24.9414L10.3796 26.1141C10.4448 26.277 10.347 26.4725 10.1679 26.5214C10.0375 26.5702 9.89095 26.5214 9.80951 26.4236L8.01775 24.6482L13.8654 18.8005L15.8852 18.8331L17.2535 20.2013C16.9277 20.4782 14.9567 22.384 10.1841 24.7785Z" fill="white"/>
<path d="M10.0536 26.6841C9.9233 26.6841 9.79299 26.6353 9.71155 26.5375L7.93608 24.762C7.9035 24.7295 7.88721 24.6969 7.88721 24.648C7.88721 24.5992 7.9035 24.5666 7.93608 24.534L13.7837 18.6863C13.8163 18.6538 13.8652 18.6375 13.8978 18.6375L15.9176 18.6701C15.9664 18.6701 15.999 18.6863 16.0316 18.7189L17.3998 20.0872C17.4324 20.1198 17.4487 20.1686 17.4487 20.2175C17.4487 20.2664 17.4324 20.2989 17.3835 20.3315L17.2695 20.4292C15.5429 21.9441 13.1973 23.4589 10.2817 24.9086L10.5586 26.0651C10.6074 26.2769 10.5097 26.5049 10.3142 26.619C10.2165 26.6678 10.1351 26.6841 10.0536 26.6841ZM8.26185 24.648L9.93959 26.3095C9.98846 26.3909 10.0862 26.4235 10.1676 26.3746C10.2491 26.3258 10.2817 26.228 10.2328 26.1466L9.95588 24.9738C9.9233 24.8272 9.98846 24.6969 10.1188 24.6317C13.0019 23.182 15.3312 21.6835 17.0415 20.2012L15.8361 18.9958L13.9629 18.9633L8.26185 24.648Z" fill="#FF6C37"/>
<path d="M6.63299 26.049L8.03382 24.6482L10.1188 26.7331L6.79587 26.5051C6.64927 26.4888 6.55154 26.3585 6.56783 26.2119C6.56783 26.1467 6.58412 26.0816 6.63299 26.049Z" fill="white"/>
<path d="M10.1189 26.8796L6.77975 26.6516C6.53541 26.6353 6.37253 26.4236 6.38882 26.1792C6.4051 26.0815 6.43768 25.9838 6.51913 25.9186L7.91996 24.5178C7.98511 24.4526 8.08284 24.4526 8.148 24.5178L10.233 26.6027C10.2818 26.6516 10.2981 26.7168 10.2655 26.7819C10.233 26.8471 10.1841 26.8796 10.1189 26.8796ZM8.03398 24.8761L6.74717 26.1629C6.6983 26.1955 6.6983 26.277 6.74717 26.3095C6.76346 26.3258 6.77975 26.3421 6.81232 26.3421L9.69543 26.5376L8.03398 24.8761Z" fill="#FF6C37"/>
<path d="M13.2951 19.5497C13.1974 19.5497 13.1322 19.4683 13.1322 19.3868C13.1322 19.338 13.1485 19.3054 13.1811 19.2728L14.7611 17.6928C14.8263 17.6277 14.924 17.6277 14.9891 17.6928L16.0153 18.719C16.0642 18.7679 16.0805 18.8167 16.0642 18.8819C16.0479 18.9308 15.999 18.9796 15.9339 18.9959L13.3277 19.5497C13.3114 19.5497 13.2951 19.5497 13.2951 19.5497ZM14.8751 18.0349L13.8001 19.1099L15.5592 18.7353L14.8751 18.0349Z" fill="#FF6C37"/>
<path d="M15.8852 18.8331L14.0933 19.224C13.963 19.2566 13.8327 19.1752 13.8001 19.0449C13.7838 18.9634 13.8001 18.882 13.8653 18.8168L14.8589 17.8232L15.8852 18.8331Z" fill="white"/>
<path d="M14.0608 19.3868C13.8327 19.3868 13.6535 19.2077 13.6535 18.9796C13.6535 18.8656 13.7024 18.7679 13.7676 18.6864L14.7611 17.6928C14.8263 17.6277 14.924 17.6277 14.9891 17.6928L16.0153 18.719C16.0642 18.7679 16.0805 18.8167 16.0642 18.8819C16.0479 18.9308 15.999 18.9796 15.9339 18.9959L14.1422 19.3868C14.1096 19.3868 14.077 19.3868 14.0608 19.3868ZM14.8751 18.0349L13.9956 18.9145C13.963 18.947 13.963 18.9796 13.9793 19.0122C13.9956 19.0448 14.0282 19.0611 14.077 19.0611L15.5756 18.7353L14.8751 18.0349Z" fill="#FF6C37"/>
<path d="M25.8702 9.15762C25.8376 9.05988 25.7236 9.01102 25.6259 9.0436C25.5281 9.07617 25.4793 9.19019 25.5119 9.28793C25.5119 9.30422 25.5281 9.3205 25.5281 9.33679C25.6259 9.53226 25.5933 9.77659 25.463 9.95576C25.3978 10.0372 25.4141 10.1512 25.4793 10.2164C25.5607 10.2815 25.6747 10.2653 25.7399 10.1838C25.9842 9.87432 26.0331 9.48339 25.8702 9.15762Z" fill="#FF6C37"/>
</g>
<defs>
<clipPath id="clip0_21423_20006">
<rect width="107.667" height="34" fill="white"/>
</clipPath>
</defs>
</svg>
