<svg width="81" height="34" viewBox="0 0 81 34" fill="none" xmlns="http://www.w3.org/2000/svg">
<g style="mix-blend-mode:luminosity" clip-path="url(#clip0_21423_19998)">
<path d="M22.164 22.0173C19.9091 22.0173 18.4163 20.3092 17.9999 19.6475C18.5342 15.4618 20.0978 14.1384 22.164 14.1384C24.2069 14.1384 25.7939 15.7388 25.7939 18.0778C25.7939 20.4169 24.2069 22.0173 22.164 22.0173ZM22.164 11.5685C18.4871 11.5685 16.4286 13.9152 15.8393 16.3312C15.1715 15.1002 14.6765 13.4536 14.2916 11.9224H9.20817V18.1163C9.20817 20.3631 8.16323 22.025 6.12045 22.025C4.07768 22.025 2.90702 20.3631 2.90702 18.1163L2.93059 11.9224H0V18.1163C0 19.9245 0.597118 21.5634 1.68921 22.7329C2.81274 23.9409 4.34481 24.5718 6.12045 24.5718C9.65601 24.5718 12.1231 21.9173 12.1231 18.1163V13.9537C12.4923 15.3233 13.3723 17.9547 15.0536 20.263L13.4823 29.0268H16.4601L17.4971 22.8175C17.835 23.0945 18.1964 23.3407 18.5813 23.5639C19.5791 24.1794 20.7184 24.5257 21.8969 24.5641C21.8969 24.5641 22.0776 24.5718 22.1719 24.5718C25.8175 24.5718 28.7166 21.8096 28.7166 18.0778C28.7166 14.3461 25.8096 11.5685 22.164 11.5685Z" fill="#14A800"/>
<path d="M64.2681 13.2469V11.9235H61.3926V24.1804H64.3074V19.3792C64.3074 16.4246 64.5824 14.301 68.6286 14.578V11.7773C66.743 11.6388 65.2738 12.0235 64.2681 13.2469Z" fill="#14A800"/>
<path d="M44.0302 11.9241L41.9168 20.4955L39.6618 11.9241H35.9535L33.6907 20.4955L31.5851 11.9241H28.6309L31.8679 24.1888H35.3721L37.8076 15.4788L40.2197 24.1888H43.7238L47.1494 11.9241H44.0302Z" fill="#14A800"/>
<path d="M53.5681 22.025C51.494 22.025 49.9383 20.4246 49.9383 18.0778C49.9383 15.7311 51.5018 14.1384 53.5681 14.1384C55.6109 14.1384 57.198 15.7388 57.198 18.0778C57.198 20.4169 55.6109 22.025 53.5681 22.025ZM53.5681 11.5685C49.899 11.5685 47.0234 14.3538 47.0234 18.0778C47.0234 21.8018 49.899 24.5641 53.5681 24.5641C57.2137 24.5641 60.1129 21.8018 60.1129 18.0778C60.1129 14.3538 57.2216 11.5685 53.5681 11.5685Z" fill="#14A800"/>
<path d="M72.8095 18.1555H73.4852L77.555 24.1877H80.847L76.1643 17.5014C78.435 16.632 79.9592 14.3622 79.9592 11.9231H77.0521C77.0521 14.5699 74.923 15.5702 72.8095 15.5702V7.08337H69.8867V24.1877H72.8016L72.8095 18.1555Z" fill="#14A800"/>
</g>
<defs>
<clipPath id="clip0_21423_19998">
<rect width="80.75" height="34" fill="white"/>
</clipPath>
</defs>
</svg>
