<svg width="70" height="34" viewBox="0 0 70 34" fill="none" xmlns="http://www.w3.org/2000/svg">
<g style="mix-blend-mode:luminosity" clip-path="url(#clip0_21423_20004)">
<path fill-rule="evenodd" clip-rule="evenodd" d="M56.4593 14.5897C56.7244 15.047 56.8111 15.5673 56.8397 16.1523L56.8774 16.9319V22.3838L56.9158 23.1643C56.9927 24.4389 57.9327 25.3813 59.2172 25.4615L59.9935 25.5V16.9319L60.032 16.1523C60.0639 15.5738 60.1498 15.0437 60.419 14.5831C60.6932 14.1107 61.087 13.7187 61.5606 13.4466C62.0343 13.1745 62.5712 13.0317 63.1175 13.0327C63.6637 13.0337 64.2001 13.1784 64.6728 13.4523C65.1454 13.7261 65.5378 14.1195 65.8103 14.5929C66.0754 15.0503 66.158 15.5804 66.1899 16.1523L66.2283 16.9295V22.3838L66.2668 23.1643C66.347 24.4454 67.2796 25.3879 68.5681 25.4615L69.3445 25.5V16.1523C69.3445 14.4993 68.6881 12.9141 67.5195 11.745C66.3509 10.576 64.7659 9.91892 63.113 9.91826C62.2283 9.91733 61.3536 10.1052 60.5473 10.4693C59.741 10.8335 59.0217 11.3655 58.4375 12.0298C57.853 11.3657 57.1337 10.8339 56.3275 10.4696C55.5213 10.1054 54.6467 9.91714 53.762 9.91745C52.4678 9.91745 51.2668 10.3101 50.272 10.9884C49.6649 10.311 48.3069 9.91745 47.5272 9.91745V25.5L48.3069 25.4615C49.6109 25.3756 50.5534 24.4585 50.6041 23.1643L50.6458 22.3838V16.9319L50.6843 16.1523C50.717 15.564 50.7988 15.047 51.0647 14.5864C51.3392 14.1143 51.7327 13.7224 52.2061 13.4499C52.6794 13.1774 53.2159 13.0339 53.762 13.0336C54.3086 13.0337 54.8455 13.1776 55.3189 13.4507C55.7923 13.7238 56.1856 14.1166 56.4593 14.5897ZM3.11618 25.4623L3.89583 25.5H15.5825L15.5441 24.7228C15.4385 23.4416 14.5312 22.5057 13.246 22.4222L12.4663 22.3838H5.45515L14.8029 13.0328L14.7644 12.2564C14.7039 10.9622 13.7581 10.0271 12.4663 9.9559L11.6867 9.92072L0 9.91745L0.0384511 10.6971C0.140715 11.966 1.06109 12.9215 2.3357 12.9952L3.11618 13.0336H10.1274L0.779657 22.3846L0.818109 23.1643C0.895011 24.4487 1.82193 25.3789 3.11618 25.4615V25.4623ZM44.4683 12.1983C45.1919 12.9218 45.7659 13.7807 46.1576 14.7261C46.5492 15.6714 46.7508 16.6846 46.7508 17.7079C46.7508 18.7311 46.5492 19.7444 46.1576 20.6897C45.7659 21.635 45.1919 22.494 44.4683 23.2174C43.0063 24.6782 41.0242 25.4988 38.9575 25.4988C36.8908 25.4988 34.9087 24.6782 33.4467 23.2174C30.4042 20.1749 30.4042 15.2409 33.4467 12.1983C34.1697 11.4751 35.028 10.9014 35.9727 10.5099C36.9174 10.1184 37.93 9.91679 38.9526 9.91663C39.9769 9.91592 40.9912 10.1171 41.9377 10.5088C42.8841 10.9005 43.744 11.4749 44.4683 12.1992V12.1983ZM42.2635 14.4048C43.1399 15.2818 43.6321 16.4709 43.6321 17.7107C43.6321 18.9506 43.1399 20.1397 42.2635 21.0167C41.3865 21.8931 40.1974 22.3854 38.9575 22.3854C37.7177 22.3854 36.5286 21.8931 35.6515 21.0167C34.7752 20.1397 34.2829 18.9506 34.2829 17.7107C34.2829 16.4709 34.7752 15.2818 35.6515 14.4048C36.5286 13.5284 37.7177 13.0361 38.9575 13.0361C40.1974 13.0361 41.3865 13.5284 42.2635 14.4048ZM22.6003 9.91663C23.6229 9.91689 24.6355 10.1186 25.5802 10.5102C26.5249 10.9019 27.3832 11.4758 28.1061 12.1992C31.1495 15.2409 31.1495 20.1757 28.1061 23.2174C26.6442 24.6782 24.662 25.4988 22.5953 25.4988C20.5287 25.4988 18.5465 24.6782 17.0846 23.2174C14.042 20.1749 14.042 15.2409 17.0846 12.1983C17.8075 11.4751 18.6659 10.9014 19.6106 10.5099C20.5553 10.1184 21.5678 9.91679 22.5904 9.91663H22.6003ZM25.9013 14.4031C26.7779 15.2802 27.2704 16.4695 27.2704 17.7095C27.2704 18.9496 26.7779 20.1388 25.9013 21.0159C25.0243 21.8923 23.8352 22.3846 22.5953 22.3846C21.3555 22.3846 20.1664 21.8923 19.2894 21.0159C18.413 20.1389 17.9207 18.9498 17.9207 17.7099C17.9207 16.4701 18.413 15.281 19.2894 14.404C20.1664 13.5276 21.3555 13.0353 22.5953 13.0353C23.8352 13.0353 25.0243 13.5276 25.9013 14.404V14.4031Z" fill="#2D8CFF"/>
</g>
<defs>
<clipPath id="clip0_21423_20004">
<rect width="69.4167" height="34" fill="white"/>
</clipPath>
</defs>
</svg>
